<mxfile host="65bd71144e">
    <diagram id="l5ZXPbysN6V5PNGldLmd" name="PÃ¡gina-1">
        <mxGraphModel dx="609" dy="875" grid="0" gridSize="10" guides="1" tooltips="1" connect="1" arrows="1" fold="1" page="0" pageScale="1" pageWidth="827" pageHeight="1169" math="0" shadow="0">
            <root>
                <mxCell id="0"/>
                <mxCell id="1" parent="0"/>
                <mxCell id="24" value="&lt;font color=&quot;#1a1a1a&quot;&gt;&lt;b&gt;DAC&lt;br&gt;&lt;br&gt;&lt;br&gt;&lt;br&gt;&lt;br&gt;&lt;br&gt;&lt;br&gt;&lt;br&gt;&lt;br&gt;&lt;br&gt;&lt;br&gt;&lt;br&gt;&lt;br&gt;&lt;br&gt;&lt;br&gt;&lt;br&gt;&lt;br&gt;&lt;br&gt;&lt;br&gt;&lt;br&gt;&lt;br&gt;&lt;br&gt;&lt;/b&gt;&lt;br&gt;&lt;/font&gt;" style="rounded=1;whiteSpace=wrap;html=1;fillColor=#f8cecc;strokeColor=#b85450;rotation=-90;gradientColor=#ea6b66;" vertex="1" parent="1">
                    <mxGeometry x="213.86" y="61.34" width="64.03" height="340.74" as="geometry"/>
                </mxCell>
                <mxCell id="25" value="&lt;font color=&quot;#1a1a1a&quot;&gt;&lt;b&gt;&lt;font style=&quot;font-size: 14px;&quot;&gt;DAO&lt;/font&gt;&lt;/b&gt;&lt;br&gt;&lt;/font&gt;" style="rounded=1;whiteSpace=wrap;html=1;fillColor=#f9f7ed;strokeColor=#36393d;" vertex="1" parent="1">
                    <mxGeometry x="130" y="208.32" width="44" height="47" as="geometry"/>
                </mxCell>
                <mxCell id="26" value="&lt;font color=&quot;#1a1a1a&quot;&gt;&lt;b&gt;&lt;font style=&quot;font-size: 14px;&quot;&gt;Data Helper&lt;/font&gt;&lt;/b&gt;&lt;br&gt;&lt;/font&gt;" style="rounded=1;whiteSpace=wrap;html=1;fillColor=#f9f7ed;strokeColor=#36393d;" vertex="1" parent="1">
                    <mxGeometry x="261.38" y="208.20999999999995" width="58" height="47" as="geometry"/>
                </mxCell>
                <mxCell id="27" value="&lt;font color=&quot;#1a1a1a&quot;&gt;&lt;font style=&quot;font-size: 18px;&quot;&gt;&lt;b&gt;Framework&lt;/b&gt;&lt;br&gt;&lt;/font&gt;&lt;br&gt;&lt;br&gt;&lt;br&gt;&lt;br&gt;&lt;br&gt;&lt;br&gt;&lt;br&gt;&lt;br&gt;&lt;br&gt;&lt;br&gt;&lt;br&gt;&lt;br&gt;&lt;br&gt;&lt;/font&gt;" style="rounded=1;whiteSpace=wrap;html=1;fillColor=#dae8fc;strokeColor=#6c8ebf;gradientColor=#7ea6e0;" vertex="1" parent="1">
                    <mxGeometry x="422" y="46" width="121" height="210" as="geometry"/>
                </mxCell>
                <mxCell id="28" value="&lt;span style=&quot;&quot;&gt;&lt;font style=&quot;font-size: 14px;&quot; color=&quot;#000000&quot;&gt;&lt;b&gt;Group&lt;br&gt;Three&lt;br&gt;Exceptions&lt;/b&gt;&lt;/font&gt;&lt;/span&gt;" style="rounded=1;whiteSpace=wrap;html=1;fillColor=#f5f5f5;strokeColor=none;gradientColor=#b3b3b3;" vertex="1" parent="1">
                    <mxGeometry x="430.5" y="125.03999999999999" width="104" height="72.65" as="geometry"/>
                </mxCell>
                <mxCell id="29" value="&lt;font color=&quot;#1a1a1a&quot;&gt;&lt;b&gt;Business&lt;br&gt;&lt;br&gt;&lt;br&gt;&lt;br&gt;&lt;br&gt;&lt;br&gt;&lt;br&gt;&lt;br&gt;&lt;br&gt;&lt;br&gt;&lt;br&gt;&lt;br&gt;&lt;br&gt;&lt;br&gt;&lt;br&gt;&lt;br&gt;&lt;br&gt;&lt;br&gt;&lt;br&gt;&lt;br&gt;&lt;br&gt;&lt;br&gt;&lt;/b&gt;&lt;br&gt;&lt;/font&gt;" style="rounded=1;whiteSpace=wrap;html=1;fillColor=#d5e8d4;strokeColor=#82b366;rotation=-90;gradientColor=#97d077;" vertex="1" parent="1">
                    <mxGeometry x="210.99" y="-9" width="66.78" height="340.74" as="geometry"/>
                </mxCell>
                <mxCell id="30" value="&lt;span style=&quot;color: rgb(26, 26, 26);&quot;&gt;&lt;font style=&quot;font-size: 24px;&quot;&gt;&lt;b&gt;Business Logic&lt;/b&gt;&lt;/font&gt;&lt;/span&gt;" style="rounded=1;whiteSpace=wrap;html=1;fillColor=#f5f5f5;strokeColor=#666666;gradientColor=#b3b3b3;" vertex="1" parent="1">
                    <mxGeometry x="147" y="137.87" width="220" height="47" as="geometry"/>
                </mxCell>
                <mxCell id="31" value="&lt;font style=&quot;&quot; color=&quot;#4d4d4d&quot;&gt;&lt;b style=&quot;&quot;&gt;&lt;font style=&quot;font-size: 12px;&quot;&gt;Da ta&lt;br&gt;Sources&lt;br&gt;&lt;br&gt;&lt;br&gt;&lt;br&gt;&lt;br&gt;&lt;br&gt;&lt;br&gt;&lt;br&gt;&lt;br&gt;&lt;/font&gt;&lt;br&gt;&lt;/b&gt;&lt;/font&gt;" style="rounded=1;whiteSpace=wrap;html=1;fillColor=none;strokeColor=#b85450;rotation=-90;gradientColor=#ea6b66;" vertex="1" parent="1">
                    <mxGeometry x="197.69" y="245" width="96.37" height="160.75" as="geometry"/>
                </mxCell>
                <mxCell id="32" value="&lt;font color=&quot;#1a1a1a&quot;&gt;&lt;b&gt;User&lt;br&gt;Interface&lt;br&gt;&lt;br&gt;&lt;br&gt;&lt;br&gt;&lt;br&gt;&lt;br&gt;&lt;br&gt;&lt;br&gt;&lt;br&gt;&lt;br&gt;&lt;br&gt;&lt;br&gt;&lt;br&gt;&lt;br&gt;&lt;br&gt;&lt;br&gt;&lt;br&gt;&lt;br&gt;&lt;br&gt;&lt;br&gt;&lt;br&gt;&lt;/b&gt;&lt;br&gt;&lt;/font&gt;" style="rounded=1;whiteSpace=wrap;html=1;fillColor=#ffcc99;strokeColor=#36393d;rotation=-90;" vertex="1" parent="1">
                    <mxGeometry x="201.2" y="-92.37000000000002" width="86.37" height="340.74" as="geometry"/>
                </mxCell>
                <mxCell id="33" value="&lt;span style=&quot;color: rgb(26, 26, 26);&quot;&gt;&lt;font style=&quot;font-size: 14px;&quot;&gt;&lt;b style=&quot;&quot;&gt;Form&lt;/b&gt;&lt;/font&gt;&lt;/span&gt;" style="rounded=1;whiteSpace=wrap;html=1;fillColor=#f5f5f5;strokeColor=#666666;gradientColor=#b3b3b3;" vertex="1" parent="1">
                    <mxGeometry x="146.44" y="81.38" width="131.45" height="28.62" as="geometry"/>
                </mxCell>
                <mxCell id="34" value="&lt;span style=&quot;color: rgb(26, 26, 26);&quot;&gt;&lt;b&gt;&lt;font style=&quot;font-size: 14px;&quot;&gt;CustomerControl&lt;/font&gt;&lt;/b&gt;&lt;/span&gt;" style="rounded=1;whiteSpace=wrap;html=1;fillColor=#f5f5f5;strokeColor=#666666;gradientColor=#b3b3b3;" vertex="1" parent="1">
                    <mxGeometry x="146.44" y="46" width="131.45" height="28.62" as="geometry"/>
                </mxCell>
                <mxCell id="35" value="&lt;span style=&quot;color: rgb(26, 26, 26);&quot;&gt;&lt;font style=&quot;font-size: 14px;&quot;&gt;&lt;b&gt;Resource&lt;/b&gt;&lt;/font&gt;&lt;br&gt;&lt;/span&gt;" style="rounded=1;whiteSpace=wrap;html=1;fillColor=#f5f5f5;strokeColor=#666666;gradientColor=#b3b3b3;" vertex="1" parent="1">
                    <mxGeometry x="301" y="46" width="69" height="64" as="geometry"/>
                </mxCell>
                <mxCell id="36" value="&lt;b&gt;&lt;font color=&quot;#990000&quot;&gt;SQLITE&lt;/font&gt;&lt;/b&gt;" style="verticalLabelPosition=bottom;html=1;verticalAlign=top;align=center;strokeColor=#6F0000;fillColor=#a20025;shape=mxgraph.azure.sql_reporting;fontColor=#ffffff;" vertex="1" parent="1">
                    <mxGeometry x="237.53000000000003" y="297" width="38.95" height="46" as="geometry"/>
                </mxCell>
                <mxCell id="37" value="&lt;font color=&quot;#1a1a1a&quot;&gt;&lt;b&gt;&lt;font style=&quot;font-size: 14px;&quot;&gt;DTO&lt;/font&gt;&lt;/b&gt;&lt;br&gt;&lt;/font&gt;" style="rounded=1;whiteSpace=wrap;html=1;fillColor=#f9f7ed;strokeColor=#36393d;" vertex="1" parent="1">
                    <mxGeometry x="339" y="208.32" width="58" height="47" as="geometry"/>
                </mxCell>
                <mxCell id="38" value="&lt;font color=&quot;#1a1a1a&quot;&gt;&lt;b&gt;&lt;font style=&quot;font-size: 14px;&quot;&gt;IDAO&lt;/font&gt;&lt;/b&gt;&lt;br&gt;&lt;/font&gt;" style="rounded=1;whiteSpace=wrap;html=1;fillColor=#f9f7ed;strokeColor=#36393d;" vertex="1" parent="1">
                    <mxGeometry x="196.00000000000003" y="208.20999999999998" width="44" height="47" as="geometry"/>
                </mxCell>
                <mxCell id="39" value="&lt;font color=&quot;#828282&quot; style=&quot;font-size: 18px;&quot;&gt;&lt;b&gt;Arquitectura N-LAYER&lt;/b&gt;&lt;/font&gt;" style="text;html=1;strokeColor=none;fillColor=none;align=center;verticalAlign=middle;whiteSpace=wrap;rounded=0;labelBackgroundColor=none;fontColor=#333333;" vertex="1" parent="1">
                    <mxGeometry x="74.38" y="-35" width="245" height="30" as="geometry"/>
                </mxCell>
            </root>
        </mxGraphModel>
    </diagram>
</mxfile>